# xmcd CD database file
#
# Track frame offsets:
#	150
#	15317
#	32407
#	44437
#	58992
#	78745
#	91225
#	105415
#	118830
#	132652
#	147245
#	159827
#	174360
#	187897
#
# Disc length: 2740 seconds
#
# Revision: 0
# Processed by: cddbd v1.4PL0 Copyright (c) Steve Scherf et al.
# Submitted via: CDex 1.40Beta8
#
DISCID=b10ab20e
DTITLE=Vários - Sertanejo Só alegria
DYEAR=1900
DGENRE=Country
TTITLE0=Rionegro and Solimões - Só alegria
TTITLE1=Chitãozinho and Xororó - Menina linda
TTITLE2=Roberta Miranda - Atração fatal
TTITLE3=Fábio and Fernando - Tô com a gota
TTITLE4=André and Adriano - A Jiripoca vai piá
TTITLE5=Sérgio Reis - Coisa boa é mulher
TTITLE6=Grupo Tradição - Bateu saudade/Cê agarrô
TTITLE7=Maurício and Maurí - Xonado eu tô
TTITLE8=Emílio and Eduardo - Rodopiou
TTITLE9=Luiz Gustavo and Raphael - Onde tem mulher eu tô
TTITLE10=Rionegro and Solimões - Bobeou, tá na poeira
TTITLE11=Paula Hunter - Eu quero ser feliz
TTITLE12=Chitãozinho and Xororó - 100% adrenalina
TTITLE13=Grupo Tradição - Brasileira
EXTD=ID3G: 2
EXTT0=
EXTT1=
EXTT2=
EXTT3=
EXTT4=
EXTT5=
EXTT6=
EXTT7=
EXTT8=
EXTT9=
EXTT10=
EXTT11=
EXTT12=
EXTT13=
PLAYORDER=
